M48
;Layer_Color=9474304
;FILE_FORMAT=2:5
INCH,LZ
;TYPE=PLATED
T01F00S00C0.00787
T03F00S00C0.04000
T04F00S00C0.12205
;TYPE=NON_PLATED
T05F00S00C0.03900
%
T01
X0113976Y0014567
X0114173Y0019685
X0119685Y0027559
X0136811Y002313
X0291339Y0019685
X0291142Y0014567
X0313976Y002313
X0468504Y0019685
X0468307Y0014567
X0491142Y002313
X0645669Y0019685
X0645472Y0014567
X0668307Y002313
X0771654Y0051181
X0776772Y0050984
X0768209Y0073819
X0771654Y0129921
X0776772Y0129724
X0768209Y0152559
X0771654Y0208661
X0776772Y0208465
X0768209Y0231299
X0771654Y0287402
X0776772Y0287205
X0768209Y0310039
X0263779Y0284528
X0252953Y0279528
X0240158Y0285433
X0226378Y0283465
X0220472Y0286417
X0213583
X0209646Y0283465
X0206693
X020374
X0216339Y0280512
X0212598Y0259842
X0220472
X0228346Y0259842
Y0251969
Y0244094
X0220472Y0244094
X0212598
Y0251969
X0220472
X0204724
Y0244094
X019685
Y0251969
Y0259842
X0204724
X0188976
Y0251969
Y0244094
X0236221
Y0251969
X0244094
X0244094Y0244094
Y0259842
X0236221
X0237205Y0298228
X0237205Y0308071
X0195866Y0310039
X0195866Y0302165
X0192913Y0297244
X0130984Y0385827
X0120984
X0201969Y0370079
X0205118
X0202756Y0354331
X0208661Y0354331
X0214567
X0220472
X0226378
X0227165Y0370079
X0223819
X0242126Y0358268
X0249213Y0346457
X0257874
Y0354331
X0238386Y034252
X0235236Y0333327
X0230118Y0333661
X0227362Y0327756
X021752Y0327756
X0220276Y0333661
X0194685Y0329724
X0190945
X0181102Y0326772
X0192913Y0314961
X0240158Y0312992
X0244094Y0319685
X0246063Y031811
X0248031Y0316535
X025Y0314961
X0245866Y0325295
X029815Y0385827
X030815
X0475315
X0485315
X065248
X066248
T03
X0771654Y0084488
Y0094488
Y0104488
Y0163228
Y0173228
Y0183228
Y0241968
Y0251969
Y0261968
X0165354Y0272244
Y0282244
Y0292244
Y0302244
Y0312244
Y0322244
X0771654Y0320709
Y0330709
Y0340709
T04
X0019685Y0019685
X0767717
X0019685Y0374016
X0767717
T05
X0254405Y0269528
X0262405
X0258405Y0289528
M30
