G04*
G04 #@! TF.GenerationSoftware,Altium Limited,Altium Designer,25.8.1 (18)*
G04*
G04 Layer_Physical_Order=2*
G04 Layer_Color=32768*
%FSLAX44Y44*%
%MOMM*%
G71*
G04*
G04 #@! TF.SameCoordinates,81A76FAA-9F08-4CFF-9DB7-55C6E21C8CF3*
G04*
G04*
G04 #@! TF.FilePolarity,Negative*
G04*
G01*
G75*
%ADD54C,1.0160*%
%ADD55C,1.4160*%
%ADD56O,1.0000X2.2000*%
%ADD57O,1.0000X1.8000*%
%ADD58C,1.3906*%
%ADD59C,3.5000*%
%ADD60C,0.6000*%
D54*
Y50000D02*
G03*
X50000Y0I50000J0D01*
G01*
X1950000D02*
G03*
X2000000Y50000I0J50000D01*
G01*
X2000000Y950000D02*
G03*
X1950000Y1000000I-50000J0D01*
G01*
X50000D02*
G03*
X0Y950000I0J-50000D01*
G01*
X50000Y0D02*
X1950000D01*
X2000000Y50000D02*
X2000000Y950000D01*
X50000Y1000000D02*
X1950000D01*
X0Y50000D02*
Y950000D01*
D55*
X420000Y691500D02*
D03*
Y716900D02*
D03*
Y742300D02*
D03*
Y767700D02*
D03*
Y793100D02*
D03*
X1960000Y265400D02*
D03*
Y465400D02*
D03*
Y665400D02*
D03*
Y865400D02*
D03*
Y440000D02*
D03*
Y240000D02*
D03*
Y840000D02*
D03*
Y640000D02*
D03*
D56*
X588200Y975000D02*
D03*
X501800D02*
D03*
D57*
X588200Y935000D02*
D03*
X501800D02*
D03*
D58*
X646190Y684600D02*
D03*
X666510D02*
D03*
X656350Y735400D02*
D03*
D59*
X50000Y950000D02*
D03*
X1950000D02*
D03*
Y50000D02*
D03*
X50000D02*
D03*
D60*
X549500Y712500D02*
D03*
X1973000Y729500D02*
D03*
Y529500D02*
D03*
Y329500D02*
D03*
Y129500D02*
D03*
X1639500Y37000D02*
D03*
X1189500D02*
D03*
X739500D02*
D03*
X289500D02*
D03*
X615000Y910000D02*
D03*
X568500Y940000D02*
D03*
X521000D02*
D03*
X485000Y837500D02*
D03*
X633000Y880000D02*
D03*
X610000Y795000D02*
D03*
X490000Y755000D02*
D03*
Y800000D02*
D03*
X670000Y722700D02*
D03*
X575000Y720000D02*
D03*
X624500Y826250D02*
D03*
X610000Y725000D02*
D03*
X540000Y660000D02*
D03*
X520000D02*
D03*
X500000D02*
D03*
X480000D02*
D03*
X620000D02*
D03*
X600000D02*
D03*
X580000Y660000D02*
D03*
X560000Y660000D02*
D03*
X584500Y847500D02*
D03*
X559500D02*
D03*
X517500Y720000D02*
D03*
X560000Y727500D02*
D03*
X525000Y720000D02*
D03*
X532500D02*
D03*
X580000Y640000D02*
D03*
X560000D02*
D03*
X540000D02*
D03*
X520000D02*
D03*
X460000Y830000D02*
D03*
X480000Y640000D02*
D03*
X500000D02*
D03*
X620000Y812000D02*
D03*
X630000Y804000D02*
D03*
X625000Y808000D02*
D03*
X635000Y800000D02*
D03*
X620000Y640000D02*
D03*
X600000D02*
D03*
X1207300Y980000D02*
D03*
X757300D02*
D03*
X307300D02*
D03*
X1657300D02*
D03*
X304000Y70000D02*
D03*
M02*
