G04*
G04 #@! TF.GenerationSoftware,Altium Limited,Altium Designer,25.8.1 (18)*
G04*
G04 Layer_Physical_Order=3*
G04 Layer_Color=128*
%FSLAX44Y44*%
%MOMM*%
G71*
G04*
G04 #@! TF.SameCoordinates,81A76FAA-9F08-4CFF-9DB7-55C6E21C8CF3*
G04*
G04*
G04 #@! TF.FilePolarity,Negative*
G04*
G01*
G75*
%ADD54C,1.0160*%
%ADD55C,1.4160*%
%ADD56O,1.0000X2.2000*%
%ADD57O,1.0000X1.8000*%
%ADD58C,1.3906*%
%ADD59C,3.5000*%
%ADD60C,0.6000*%
%ADD61C,0.2000*%
D54*
Y50000D02*
G03*
X50000Y0I50000J0D01*
G01*
X1950000D02*
G03*
X2000000Y50000I0J50000D01*
G01*
X2000000Y950000D02*
G03*
X1950000Y1000000I-50000J0D01*
G01*
X50000D02*
G03*
X0Y950000I0J-50000D01*
G01*
X50000Y0D02*
X1950000D01*
X2000000Y50000D02*
X2000000Y950000D01*
X50000Y1000000D02*
X1950000D01*
X0Y50000D02*
Y950000D01*
D55*
X420000Y691500D02*
D03*
Y716900D02*
D03*
Y742300D02*
D03*
Y767700D02*
D03*
Y793100D02*
D03*
Y818500D02*
D03*
X1960000Y214600D02*
D03*
Y414600D02*
D03*
Y614600D02*
D03*
Y814600D02*
D03*
Y440000D02*
D03*
Y240000D02*
D03*
Y840000D02*
D03*
Y640000D02*
D03*
D56*
X588200Y975000D02*
D03*
X501800D02*
D03*
D57*
X588200Y935000D02*
D03*
X501800D02*
D03*
D58*
X646190Y684600D02*
D03*
X666510D02*
D03*
X656350Y735400D02*
D03*
D59*
X50000Y950000D02*
D03*
X1950000D02*
D03*
Y50000D02*
D03*
X50000D02*
D03*
D60*
X1960000Y730000D02*
D03*
Y530000D02*
D03*
Y330000D02*
D03*
X290000Y50000D02*
D03*
X740000D02*
D03*
X1190000D02*
D03*
X1640000D02*
D03*
X1960000Y130000D02*
D03*
X1951250Y787500D02*
D03*
Y587500D02*
D03*
Y387500D02*
D03*
Y187500D02*
D03*
X1697500Y58750D02*
D03*
X1247500D02*
D03*
X797500D02*
D03*
X347500D02*
D03*
X655000Y880000D02*
D03*
Y900000D02*
D03*
X605500Y870000D02*
D03*
X577000Y940000D02*
D03*
X513000D02*
D03*
X545000Y900000D02*
D03*
X530000D02*
D03*
X1232700Y980000D02*
D03*
X1682700D02*
D03*
X782700D02*
D03*
X602500Y782500D02*
D03*
X560000Y900000D02*
D03*
X642500Y710000D02*
D03*
X540000Y620000D02*
D03*
X602500Y757500D02*
D03*
X520000Y620000D02*
D03*
X575000Y900000D02*
D03*
X515000Y900000D02*
D03*
X332700Y980000D02*
D03*
X542500Y727500D02*
D03*
X500000Y620000D02*
D03*
X600000D02*
D03*
X620000D02*
D03*
X497500Y787500D02*
D03*
X497500Y767500D02*
D03*
X580000Y620000D02*
D03*
X560000Y620000D02*
D03*
X494500Y837500D02*
D03*
X552500Y832500D02*
D03*
X577500Y832500D02*
D03*
X597500Y846650D02*
D03*
X480000Y620000D02*
D03*
X517500Y720000D02*
D03*
X560000Y727500D02*
D03*
X525000Y720000D02*
D03*
X532500D02*
D03*
X580000Y640000D02*
D03*
X560000D02*
D03*
X540000D02*
D03*
X520000D02*
D03*
X460000Y830000D02*
D03*
X480000Y640000D02*
D03*
X500000D02*
D03*
X620000Y812000D02*
D03*
X630000Y804000D02*
D03*
X625000Y808000D02*
D03*
X635000Y800000D02*
D03*
X620000Y640000D02*
D03*
X600000D02*
D03*
X1207300Y980000D02*
D03*
X757300D02*
D03*
X307300D02*
D03*
X1657300D02*
D03*
X304000Y70000D02*
D03*
D61*
X200000Y900000D02*
G03*
X100000Y800000I0J-100000D01*
G01*
X1900000Y880000D02*
G03*
X1880000Y900000I-20000J0D01*
G01*
X1800000Y100000D02*
G03*
X1900000Y200000I0J100000D01*
G01*
X100000D02*
G03*
X200000Y100000I100000J0D01*
G01*
Y900000D02*
X480000D01*
Y832500D02*
Y900000D01*
X490000Y900000D02*
X1880000D01*
X490000Y832500D02*
Y900000D01*
X480000Y832500D02*
X490000D01*
X1900000Y200000D02*
Y252500D01*
Y277500D02*
Y452500D01*
Y477500D02*
Y652500D01*
Y677500D02*
Y852500D01*
Y877500D02*
Y880000D01*
Y852500D02*
X1972500D01*
Y877500D01*
X1900000D02*
X1972500D01*
X1900000Y652500D02*
X1972500D01*
Y677500D01*
X1900000D02*
X1972500D01*
X1900000Y452500D02*
X1972500D01*
Y477500D01*
X1900000D02*
X1972500D01*
X1900000Y277500D02*
X1972500D01*
Y252500D02*
Y277500D01*
X1900000Y252500D02*
X1972500D01*
X100000Y200000D02*
X100000Y800000D01*
X200000Y100000D02*
X1800000D01*
M02*
