G04*
G04 #@! TF.GenerationSoftware,Altium Limited,Altium Designer,25.8.1 (18)*
G04*
G04 Layer_Physical_Order=1*
G04 Layer_Color=255*
%FSLAX44Y44*%
%MOMM*%
G71*
G04*
G04 #@! TF.SameCoordinates,81A76FAA-9F08-4CFF-9DB7-55C6E21C8CF3*
G04*
G04*
G04 #@! TF.FilePolarity,Positive*
G04*
G01*
G75*
%ADD11R,0.4000X0.7000*%
%ADD12R,0.6000X0.9000*%
%ADD13R,0.7000X0.4000*%
%ADD14R,0.3000X1.0000*%
%ADD15R,0.6000X1.0000*%
%ADD16R,0.3500X0.8000*%
%ADD17R,0.7000X0.9000*%
%ADD18R,1.1000X1.2000*%
%ADD19R,0.9000X0.7000*%
%ADD20R,1.2000X1.1000*%
%ADD21R,1.5000X3.5000*%
%ADD22R,0.7800X0.6800*%
%ADD23R,0.6000X0.3500*%
%ADD24R,0.8000X0.3500*%
%ADD45C,0.7874*%
%ADD46C,0.1500*%
%ADD47C,0.4000*%
%ADD48C,1.8796*%
%ADD49O,1.0000X2.2000*%
%ADD50O,1.0000X1.8000*%
%ADD51C,0.9906*%
%ADD52C,6.2000*%
%ADD53C,0.4500*%
D11*
X640500Y880000D02*
D03*
X649500D02*
D03*
X640500Y900000D02*
D03*
X649500D02*
D03*
X615500Y820000D02*
D03*
X575500Y840000D02*
D03*
X550500Y840000D02*
D03*
X494500Y830000D02*
D03*
X540500Y720000D02*
D03*
X485500Y830000D02*
D03*
X569500Y720000D02*
D03*
X624500Y820000D02*
D03*
X584500Y840000D02*
D03*
X559500Y840000D02*
D03*
X549500Y720000D02*
D03*
X560500Y720000D02*
D03*
X449500Y793100D02*
D03*
X440500D02*
D03*
X449500Y691500D02*
D03*
X440500D02*
D03*
X449500Y716900D02*
D03*
X440500D02*
D03*
X449500Y742300D02*
D03*
X440500D02*
D03*
D12*
X615000Y901000D02*
D03*
X624500Y879000D02*
D03*
X605500D02*
D03*
D13*
X575000Y914500D02*
D03*
Y905500D02*
D03*
X560000Y914500D02*
D03*
Y905500D02*
D03*
X545000Y914500D02*
D03*
Y905500D02*
D03*
X515000Y914500D02*
D03*
Y905500D02*
D03*
X530000Y914500D02*
D03*
Y905500D02*
D03*
X630000Y759500D02*
D03*
X610000Y780500D02*
D03*
Y759500D02*
D03*
X540000Y625500D02*
D03*
X520000D02*
D03*
X480000D02*
D03*
X500000D02*
D03*
X620000D02*
D03*
X600000D02*
D03*
X490000Y785500D02*
D03*
Y769500D02*
D03*
X580000Y625500D02*
D03*
X560000D02*
D03*
X610000Y730500D02*
D03*
Y789500D02*
D03*
X490000Y794500D02*
D03*
Y760500D02*
D03*
X540000Y654500D02*
D03*
X520000D02*
D03*
X500000D02*
D03*
X480000D02*
D03*
X620000D02*
D03*
X600000D02*
D03*
X580000D02*
D03*
X560000D02*
D03*
X480000Y634500D02*
D03*
X520000Y645500D02*
D03*
X500000Y634500D02*
D03*
X480000Y645500D02*
D03*
X500000D02*
D03*
X610000Y750500D02*
D03*
X630000Y750500D02*
D03*
X610000Y739500D02*
D03*
X620000Y645500D02*
D03*
X560000Y634500D02*
D03*
X600000D02*
D03*
Y645500D02*
D03*
X580000Y634500D02*
D03*
Y645500D02*
D03*
X620000Y634500D02*
D03*
X520000D02*
D03*
X560000Y645500D02*
D03*
X540000Y634500D02*
D03*
Y645500D02*
D03*
D14*
X562500Y930000D02*
D03*
X557500D02*
D03*
X527500D02*
D03*
X532500D02*
D03*
X552500D02*
D03*
X542500D02*
D03*
X547500D02*
D03*
X537500D02*
D03*
D15*
X521000D02*
D03*
X568500D02*
D03*
X577000D02*
D03*
X513000D02*
D03*
D16*
X567500Y824500D02*
D03*
X577500D02*
D03*
X552500D02*
D03*
X542500Y735500D02*
D03*
X587500Y824500D02*
D03*
X572500D02*
D03*
X582500D02*
D03*
X557500D02*
D03*
X547500Y735500D02*
D03*
X552500D02*
D03*
X532500Y824500D02*
D03*
X537500D02*
D03*
X542500D02*
D03*
X547500D02*
D03*
X562500D02*
D03*
X587500Y735500D02*
D03*
X582500D02*
D03*
X577500D02*
D03*
X572500D02*
D03*
X567500D02*
D03*
X562500D02*
D03*
X557500D02*
D03*
X537500D02*
D03*
X532500D02*
D03*
X527500D02*
D03*
X522500D02*
D03*
X517500D02*
D03*
X512500D02*
D03*
X527500Y824500D02*
D03*
X522500D02*
D03*
X517500D02*
D03*
X512500D02*
D03*
D17*
X1960000Y720000D02*
D03*
Y520000D02*
D03*
Y320000D02*
D03*
Y120000D02*
D03*
X1973000Y720000D02*
D03*
Y520000D02*
D03*
Y320000D02*
D03*
Y120000D02*
D03*
D18*
X1951250Y776000D02*
D03*
Y576000D02*
D03*
Y376000D02*
D03*
Y176000D02*
D03*
X1968750Y744000D02*
D03*
Y544000D02*
D03*
Y344000D02*
D03*
Y144000D02*
D03*
X1951250Y744000D02*
D03*
X1968750Y776000D02*
D03*
X1951250Y544000D02*
D03*
X1968750Y576000D02*
D03*
X1951250Y344000D02*
D03*
X1968750Y376000D02*
D03*
X1951250Y144000D02*
D03*
X1968750Y176000D02*
D03*
D19*
X1630000Y50000D02*
D03*
X1180000D02*
D03*
X730000D02*
D03*
X280000D02*
D03*
X1630000Y37000D02*
D03*
X1180000D02*
D03*
X730000D02*
D03*
X280000D02*
D03*
D20*
X1686000Y58750D02*
D03*
X1236000D02*
D03*
X786000D02*
D03*
X336000D02*
D03*
X1654000Y41250D02*
D03*
X1204000D02*
D03*
X754000D02*
D03*
X304000D02*
D03*
X1654000Y58750D02*
D03*
X1686000Y41250D02*
D03*
X1204000Y58750D02*
D03*
X1236000Y41250D02*
D03*
X754000Y58750D02*
D03*
X786000Y41250D02*
D03*
X336000D02*
D03*
X304000Y58750D02*
D03*
D21*
X1682700Y950000D02*
D03*
X1232700D02*
D03*
X782700D02*
D03*
X332700Y950000D02*
D03*
X1207300Y950000D02*
D03*
X757300D02*
D03*
X307300Y950000D02*
D03*
X1657300Y950000D02*
D03*
D22*
X606350Y846650D02*
D03*
X623650Y833350D02*
D03*
Y846650D02*
D03*
X606350Y833350D02*
D03*
D23*
X499000Y856500D02*
D03*
X481000Y843500D02*
D03*
Y856500D02*
D03*
X499000Y843500D02*
D03*
Y850000D02*
D03*
D24*
X594500Y782500D02*
D03*
Y757500D02*
D03*
X505500Y767500D02*
D03*
Y787500D02*
D03*
X594500Y787500D02*
D03*
X505500Y792500D02*
D03*
Y762500D02*
D03*
X594500Y817500D02*
D03*
Y812500D02*
D03*
Y807500D02*
D03*
Y802500D02*
D03*
Y797500D02*
D03*
Y792500D02*
D03*
Y777500D02*
D03*
Y772500D02*
D03*
Y767500D02*
D03*
Y762500D02*
D03*
Y752500D02*
D03*
Y747500D02*
D03*
Y742500D02*
D03*
X505500Y817500D02*
D03*
Y802500D02*
D03*
Y797500D02*
D03*
Y782500D02*
D03*
Y777500D02*
D03*
Y772500D02*
D03*
Y757500D02*
D03*
Y752500D02*
D03*
Y747500D02*
D03*
Y742500D02*
D03*
Y812500D02*
D03*
Y807500D02*
D03*
D45*
X650000Y710000D02*
D03*
X662700Y722700D02*
D03*
X650000Y697300D02*
D03*
X662700D02*
D03*
Y710000D02*
D03*
X650000Y722700D02*
D03*
D46*
X420000Y691500D02*
X440500D01*
X420000Y716900D02*
X440500D01*
X420000Y742300D02*
X440500D01*
X420000Y793100D02*
X440500D01*
X411000Y806000D02*
X444000D01*
X449500Y793100D02*
Y800500D01*
X444000Y806000D02*
X449500Y800500D01*
X400000Y795000D02*
X411000Y806000D01*
X400000Y687500D02*
Y795000D01*
Y687500D02*
X412500Y675000D01*
X465000Y752500D02*
Y804000D01*
X454800Y742300D02*
X465000Y752500D01*
X449500Y742300D02*
X454800D01*
X470000Y732500D02*
Y802500D01*
X449500Y716900D02*
X454400D01*
X470000Y732500D01*
X451500Y691500D02*
X454000D01*
X449500D02*
X451500D01*
X475000Y712500D02*
Y801000D01*
X454000Y691500D02*
X475000Y712500D01*
X465000Y804000D02*
X478000Y817000D01*
X470000Y802500D02*
X480500Y813000D01*
X475000Y801000D02*
X483000Y809000D01*
X450000Y675000D02*
X480000Y705000D01*
Y800000D01*
X485000Y805000D01*
X483000Y809000D02*
X493500D01*
X500000Y802500D01*
X412500Y675000D02*
X450000D01*
X480500Y813000D02*
X494500D01*
X500000Y807500D01*
X478000Y817000D02*
X495500D01*
X500000Y812500D01*
X500000Y802500D02*
X505500D01*
X492500Y805000D02*
X500000Y797500D01*
X485000Y805000D02*
X492500D01*
X500000Y797500D02*
X505500D01*
X500000Y807500D02*
X505500D01*
X500000Y812500D02*
X505500D01*
X517500Y832500D02*
Y837500D01*
X505000Y850000D02*
X517500Y837500D01*
X499000Y850000D02*
X505000D01*
X517500Y832500D02*
X517500Y832500D01*
Y824500D02*
Y832500D01*
X460000Y830000D02*
Y840000D01*
X476500Y856500D01*
X481000D01*
X549500Y712500D02*
Y720000D01*
X587500Y832500D02*
X590000Y835000D01*
Y899500D01*
X575000Y914500D02*
X590000Y899500D01*
X539000Y898500D02*
X567500Y870000D01*
Y835500D02*
Y870000D01*
X536500Y897465D02*
X565000Y868964D01*
Y834000D02*
Y868964D01*
X537500Y930000D02*
Y936621D01*
X550000Y922500D02*
X552500Y925000D01*
X542500Y923500D02*
Y930000D01*
X552500Y925000D02*
Y930000D01*
X541500Y922500D02*
X550000D01*
X539000Y914500D02*
X545000D01*
X541500Y922500D02*
X542500Y923500D01*
X539000Y920000D02*
X541500Y922500D01*
X539000Y914500D02*
Y920000D01*
Y898500D02*
Y914500D01*
X572500Y824500D02*
Y830500D01*
X567500Y835500D02*
X572500Y830500D01*
X547500Y930000D02*
Y936621D01*
X538379Y937500D02*
X546621D01*
X547500Y936621D01*
X537500D02*
X538379Y937500D01*
X536500Y921500D02*
X537500Y922500D01*
Y930000D01*
X536500Y915000D02*
Y921500D01*
Y897465D02*
Y915000D01*
X536000Y914500D02*
X536500Y915000D01*
X530000Y914500D02*
X536000D01*
X567500Y824500D02*
Y831500D01*
X565000Y834000D02*
X567500Y831500D01*
X545000Y900000D02*
Y905500D01*
Y900000D02*
X545000Y900000D01*
X530000Y900000D02*
X530000Y900000D01*
X530000Y900000D02*
Y905500D01*
X1232700Y950000D02*
Y980000D01*
X1682700Y950000D02*
Y980000D01*
X782700Y950000D02*
Y980000D01*
X610000Y759500D02*
X630000D01*
X606350Y846650D02*
X615500Y837500D01*
Y820000D02*
Y837500D01*
X560000Y900000D02*
Y905500D01*
Y900000D02*
X560000Y900000D01*
X604500Y759500D02*
X610000D01*
X604500Y780500D02*
X610000D01*
Y759500D02*
X610000Y759500D01*
X594500Y782500D02*
X602500D01*
X604500Y780500D01*
X602500Y757500D02*
X604500Y759500D01*
X594500Y757500D02*
X602500D01*
X642500Y710000D02*
X650000D01*
X540000Y620000D02*
Y625500D01*
X520000Y620000D02*
Y625500D01*
X575000Y900000D02*
Y905500D01*
Y900000D02*
X575000Y900000D01*
X515000Y900000D02*
Y905500D01*
Y900000D02*
X515000Y900000D01*
X332700Y950000D02*
Y980000D01*
X496500Y856500D02*
X499000D01*
X497500Y787500D02*
X505500D01*
X492500Y852500D02*
X496500Y856500D01*
X540500Y725500D02*
X542500Y727500D01*
Y735500D01*
X540500Y720000D02*
Y725500D01*
X500000Y620000D02*
Y625500D01*
X620000Y620000D02*
X620000Y620000D01*
X620000Y620000D02*
Y625500D01*
X600000Y620000D02*
Y625500D01*
X495500Y785500D02*
X497500Y787500D01*
X497500Y767500D02*
X505500D01*
X495500Y769500D02*
X497500Y767500D01*
X490000Y785500D02*
X495500D01*
X490000Y769500D02*
X495500D01*
X580000Y620000D02*
Y625500D01*
X560000Y620000D02*
Y625500D01*
X580000Y620000D02*
X580000Y620000D01*
X492500Y839500D02*
X494500Y837500D01*
X575500Y834500D02*
X577500Y832500D01*
X550500Y834500D02*
Y840000D01*
X575500Y834500D02*
Y840000D01*
X494500Y830000D02*
Y837500D01*
X552500Y824500D02*
Y832500D01*
X550500Y834500D02*
X552500Y832500D01*
X577500Y824500D02*
Y832500D01*
X492500Y839500D02*
Y852500D01*
X597500Y846650D02*
X606350D01*
X480000Y620000D02*
Y625500D01*
X557500Y922500D02*
Y930000D01*
X560000Y914500D02*
Y920000D01*
X557500Y922500D02*
X560000Y920000D01*
X515000Y914500D02*
Y917500D01*
X517500Y920000D01*
X525000D01*
X527500Y922500D01*
Y930000D01*
X615000Y901000D02*
X616000Y900000D01*
X587500Y824500D02*
Y832500D01*
X568500Y921000D02*
X575000Y914500D01*
X568500Y921000D02*
Y930000D01*
X481000Y841500D02*
Y843500D01*
Y841500D02*
X485500Y837000D01*
Y830000D02*
Y837000D01*
X624500Y879000D02*
X625500Y880000D01*
X610000Y789500D02*
Y795000D01*
X490000Y794500D02*
Y800000D01*
Y755000D02*
Y760500D01*
X495500Y794500D02*
X497500Y792500D01*
X490000Y794500D02*
X495500D01*
X497500Y792500D02*
X505500D01*
X495500Y760500D02*
X497500Y762500D01*
X490000Y760500D02*
X495500D01*
X497500Y762500D02*
X505500D01*
X662700Y722700D02*
X670000D01*
X569500Y720000D02*
X575000D01*
X623650Y833350D02*
X624500Y832500D01*
Y820000D02*
Y832500D01*
X623650Y833350D02*
Y846650D01*
X582500Y824500D02*
Y832500D01*
X584500Y834500D01*
X604500Y789500D02*
X610000D01*
X602500Y787500D02*
X604500Y789500D01*
X610000Y725000D02*
Y730500D01*
X594500Y787500D02*
X602500D01*
X557500Y832500D02*
X559500Y834500D01*
X557500Y824500D02*
Y832500D01*
X549500Y720000D02*
Y725500D01*
X547500Y727500D02*
X549500Y725500D01*
X547500Y727500D02*
Y735500D01*
X540000Y654500D02*
Y660000D01*
X520000Y654500D02*
Y660000D01*
X500000Y654500D02*
Y660000D01*
X480000Y654500D02*
Y660000D01*
X620000Y660000D02*
X620000Y660000D01*
X620000Y654500D02*
Y660000D01*
X600000Y654500D02*
Y660000D01*
X580000Y660000D02*
X580000Y660000D01*
X580000Y654500D02*
Y660000D01*
X560000D02*
X560000Y660000D01*
X560000Y654500D02*
Y660000D01*
X584500Y840000D02*
Y847500D01*
X559500Y840000D02*
Y847500D01*
Y834500D02*
Y840000D01*
X584500Y834500D02*
Y840000D01*
X594746Y812746D02*
X600246D01*
X606350Y818850D02*
Y833350D01*
X600246Y812746D02*
X606350Y818850D01*
X642500Y672500D02*
X672500D01*
X677500Y677500D01*
X625000Y690000D02*
X642500Y672500D01*
X560000Y645500D02*
X560000Y645500D01*
Y634500D02*
Y640000D01*
Y645500D01*
X540000Y634500D02*
Y640000D01*
Y645500D01*
X600000Y640000D02*
Y645500D01*
Y634500D02*
Y640000D01*
X520000Y634500D02*
Y640000D01*
Y645500D01*
X620000Y634500D02*
Y640000D01*
Y645500D01*
X500000Y634500D02*
Y640000D01*
X480000Y634500D02*
Y640000D01*
X580000D02*
Y645500D01*
Y634500D02*
Y640000D01*
X480000D02*
Y645500D01*
X500000Y640000D02*
Y645500D01*
X532500Y730000D02*
Y735500D01*
X525000Y722500D02*
X532500Y730000D01*
Y720000D02*
Y725000D01*
X525000Y720000D02*
Y722500D01*
X527500Y730000D02*
Y735500D01*
X532500Y725000D02*
X537500Y730000D01*
Y735500D01*
X582500Y725000D02*
Y735500D01*
X594500Y728500D02*
Y742500D01*
X587500Y727500D02*
Y735500D01*
X594500Y797500D02*
X600000D01*
X594500Y792500D02*
X600000D01*
X552500Y728000D02*
Y735500D01*
X557500Y730000D02*
X560000Y727500D01*
X557500Y730000D02*
Y735500D01*
X552500Y728000D02*
X560500Y720000D01*
X517500D02*
X527500Y730000D01*
X610000Y750500D02*
X610000Y750500D01*
X630000D01*
X665987Y717013D02*
X670000Y713000D01*
Y704600D02*
Y713000D01*
X662700Y697300D02*
X670000Y704600D01*
X656700Y704000D02*
X662700Y710000D01*
X611000Y704000D02*
X656700D01*
X610000Y697500D02*
X649800D01*
X605987Y717013D02*
X665987D01*
X649800Y697500D02*
X650000Y697300D01*
X604500Y812000D02*
X620000D01*
X594500Y812500D02*
X594746Y812746D01*
X594500Y807500D02*
X600000D01*
X645000Y727700D02*
Y740000D01*
X662500Y745000D02*
X677500Y730000D01*
X645000Y727700D02*
X650000Y722700D01*
X645000Y740000D02*
X650000Y745000D01*
X662500D01*
X600000Y797500D02*
X606500Y804000D01*
X600000Y792500D02*
X607500Y800000D01*
X600000Y802500D02*
X605500Y808000D01*
X600000Y807500D02*
X604500Y812000D01*
X594500Y802500D02*
X600000D01*
X607500Y800000D02*
X635000D01*
X606500Y804000D02*
X630000D01*
X605500Y808000D02*
X625000D01*
X587500Y727500D02*
X611000Y704000D01*
X560500Y720000D02*
X590500Y690000D01*
X625000D01*
X582500Y725000D02*
X610000Y697500D01*
X604500Y750500D02*
X610000D01*
Y739500D02*
Y750500D01*
X594500Y728500D02*
X605987Y717013D01*
X594500Y752500D02*
X602500D01*
X604500Y750500D01*
X677500Y677500D02*
Y730000D01*
X1207300Y950000D02*
Y980000D01*
X757300Y950000D02*
Y980000D01*
X307300Y950000D02*
Y980000D01*
X1657300Y950000D02*
Y980000D01*
X304000Y58750D02*
Y70000D01*
X1951250Y111250D02*
Y144000D01*
X1881250Y41250D02*
X1951250Y111250D01*
X1686000Y41250D02*
X1881250D01*
X1990000Y597750D02*
Y670000D01*
X1951250Y708750D02*
X1990000Y670000D01*
X1951250Y708750D02*
Y744000D01*
X1990000Y397250D02*
Y470000D01*
X1951250Y508750D02*
Y544000D01*
Y508750D02*
X1990000Y470000D01*
Y197250D02*
Y270000D01*
X1951250Y308750D02*
Y344000D01*
Y308750D02*
X1990000Y270000D01*
X1968750Y576500D02*
X1990000Y597750D01*
X1968750Y576000D02*
Y576500D01*
Y376000D02*
X1990000Y397250D01*
X1968750Y176000D02*
X1990000Y197250D01*
X1651500Y61250D02*
X1654000Y58750D01*
X1271250Y61250D02*
X1651500D01*
X1251250Y41250D02*
X1271250Y61250D01*
X1236000Y41250D02*
X1251250D01*
X1201500Y61250D02*
X1204000Y58750D01*
X821250Y61250D02*
X1201500D01*
X801250Y41250D02*
X821250Y61250D01*
X786000Y41250D02*
X801250D01*
X751500Y61250D02*
X754000Y58750D01*
X371250Y61250D02*
X751500D01*
X351250Y41250D02*
X371250Y61250D01*
X336000Y41250D02*
X351250D01*
D47*
X1960000Y720000D02*
Y730000D01*
Y520000D02*
Y530000D01*
Y320000D02*
Y330000D01*
X280000Y50000D02*
X290000D01*
X730000D02*
X740000D01*
X1180000D02*
X1190000D01*
X1630000D02*
X1640000D01*
X1960000Y120000D02*
Y130000D01*
X1951250Y776000D02*
Y787500D01*
Y576000D02*
Y587500D01*
Y376000D02*
Y387500D01*
Y176000D02*
Y187500D01*
X1686000Y58750D02*
X1697500D01*
X1236000D02*
X1247500D01*
X786000D02*
X797500D01*
X336000D02*
X347500D01*
X605500Y870000D02*
Y879000D01*
X649500Y880000D02*
X655000D01*
X649500Y900000D02*
X655000D01*
X577000Y930000D02*
Y940000D01*
X513000Y930000D02*
Y940000D01*
X1973000Y720000D02*
Y729500D01*
X1968750Y733750D02*
Y744000D01*
Y733750D02*
X1973000Y729500D01*
Y520000D02*
Y529500D01*
X1968750Y533750D02*
Y544000D01*
Y533750D02*
X1973000Y529500D01*
Y320000D02*
Y329500D01*
X1968750Y333750D02*
Y344000D01*
Y333750D02*
X1973000Y329500D01*
Y120000D02*
Y129500D01*
X1968750Y133750D02*
Y144000D01*
Y133750D02*
X1973000Y129500D01*
X1630000Y37000D02*
X1639500D01*
X1643750Y41250D02*
X1654000D01*
X1639500Y37000D02*
X1643750Y41250D01*
X1180000Y37000D02*
X1189500D01*
X1193750Y41250D02*
X1204000D01*
X1189500Y37000D02*
X1193750Y41250D01*
X730000Y37000D02*
X739500D01*
X743750Y41250D02*
X754000D01*
X739500Y37000D02*
X743750Y41250D01*
X289500Y37000D02*
X293750Y41250D01*
X304000D01*
X280000Y37000D02*
X289500D01*
X615000Y901000D02*
Y910000D01*
X616000Y900000D02*
X640500D01*
X568500Y930000D02*
Y940000D01*
X521000Y930000D02*
Y940000D01*
X625500Y880000D02*
X640500D01*
D48*
X420000Y691500D02*
D03*
Y716900D02*
D03*
Y742300D02*
D03*
Y767700D02*
D03*
Y793100D02*
D03*
Y818500D02*
D03*
X1960000Y214600D02*
D03*
Y414600D02*
D03*
Y614600D02*
D03*
Y814600D02*
D03*
Y265400D02*
D03*
Y465400D02*
D03*
Y665400D02*
D03*
Y865400D02*
D03*
Y440000D02*
D03*
Y240000D02*
D03*
Y840000D02*
D03*
Y640000D02*
D03*
D49*
X588200Y975000D02*
D03*
X501800D02*
D03*
D50*
X588200Y935000D02*
D03*
X501800D02*
D03*
D51*
X646190Y684600D02*
D03*
X666510D02*
D03*
X656350Y735400D02*
D03*
D52*
X50000Y950000D02*
D03*
X1950000D02*
D03*
Y50000D02*
D03*
X50000D02*
D03*
D53*
X549500Y712500D02*
D03*
X1960000Y730000D02*
D03*
Y530000D02*
D03*
Y330000D02*
D03*
X290000Y50000D02*
D03*
X740000D02*
D03*
X1190000D02*
D03*
X1640000D02*
D03*
X1960000Y130000D02*
D03*
X1951250Y787500D02*
D03*
Y587500D02*
D03*
Y387500D02*
D03*
Y187500D02*
D03*
X1697500Y58750D02*
D03*
X1247500D02*
D03*
X797500D02*
D03*
X347500D02*
D03*
X655000Y880000D02*
D03*
Y900000D02*
D03*
X605500Y870000D02*
D03*
X577000Y940000D02*
D03*
X513000D02*
D03*
X545000Y900000D02*
D03*
X530000D02*
D03*
X1232700Y980000D02*
D03*
X1682700D02*
D03*
X782700D02*
D03*
X602500Y782500D02*
D03*
X560000Y900000D02*
D03*
X642500Y710000D02*
D03*
X540000Y620000D02*
D03*
X602500Y757500D02*
D03*
X520000Y620000D02*
D03*
X575000Y900000D02*
D03*
X515000Y900000D02*
D03*
X332700Y980000D02*
D03*
X542500Y727500D02*
D03*
X500000Y620000D02*
D03*
X600000D02*
D03*
X620000D02*
D03*
X497500Y787500D02*
D03*
X497500Y767500D02*
D03*
X580000Y620000D02*
D03*
X560000Y620000D02*
D03*
X494500Y837500D02*
D03*
X552500Y832500D02*
D03*
X577500Y832500D02*
D03*
X597500Y846650D02*
D03*
X480000Y620000D02*
D03*
X1973000Y729500D02*
D03*
Y529500D02*
D03*
Y329500D02*
D03*
Y129500D02*
D03*
X1639500Y37000D02*
D03*
X1189500D02*
D03*
X739500D02*
D03*
X289500D02*
D03*
X615000Y910000D02*
D03*
X568500Y940000D02*
D03*
X521000D02*
D03*
X485000Y837500D02*
D03*
X633000Y880000D02*
D03*
X610000Y795000D02*
D03*
X490000Y755000D02*
D03*
Y800000D02*
D03*
X670000Y722700D02*
D03*
X575000Y720000D02*
D03*
X624500Y826250D02*
D03*
X610000Y725000D02*
D03*
X540000Y660000D02*
D03*
X520000D02*
D03*
X500000D02*
D03*
X480000D02*
D03*
X620000D02*
D03*
X600000D02*
D03*
X580000Y660000D02*
D03*
X560000Y660000D02*
D03*
X584500Y847500D02*
D03*
X559500D02*
D03*
X517500Y720000D02*
D03*
X560000Y727500D02*
D03*
X525000Y720000D02*
D03*
X532500D02*
D03*
X580000Y640000D02*
D03*
X560000D02*
D03*
X540000D02*
D03*
X520000D02*
D03*
X460000Y830000D02*
D03*
X480000Y640000D02*
D03*
X500000D02*
D03*
X620000Y812000D02*
D03*
X630000Y804000D02*
D03*
X625000Y808000D02*
D03*
X635000Y800000D02*
D03*
X620000Y640000D02*
D03*
X600000D02*
D03*
X1207300Y980000D02*
D03*
X757300D02*
D03*
X307300D02*
D03*
X1657300D02*
D03*
X304000Y70000D02*
D03*
M02*
