G04*
G04 #@! TF.GenerationSoftware,Altium Limited,Altium Designer,25.8.1 (18)*
G04*
G04 Layer_Color=8388736*
%FSLAX44Y44*%
%MOMM*%
G71*
G04*
G04 #@! TF.SameCoordinates,4989E982-70B9-47B7-952F-25C406283C1E*
G04*
G04*
G04 #@! TF.FilePolarity,Negative*
G04*
G01*
G75*
%ADD25R,0.9032X1.1032*%
%ADD26R,1.1032X0.9032*%
%ADD27R,0.5532X0.8032*%
%ADD28R,0.9032X0.6032*%
%ADD29R,0.6032X0.9032*%
%ADD30O,3.2032X1.7032*%
%ADD31R,1.0032X0.5532*%
%ADD32R,0.5532X1.0032*%
%ADD33R,0.9832X0.8832*%
%ADD34R,1.7032X3.7032*%
%ADD35R,1.3032X1.4032*%
%ADD36R,1.4032X1.3032*%
%ADD37R,0.8032X1.1032*%
%ADD38C,0.9906*%
%ADD39R,0.8032X1.2032*%
%ADD40R,0.5032X1.2032*%
%ADD41C,1.1938*%
%ADD42O,1.2032X2.4032*%
%ADD43O,1.2032X2.0032*%
%ADD44C,6.4032*%
D25*
X1948500Y205000D02*
D03*
X1961500D02*
D03*
X1948500Y405000D02*
D03*
X1961500D02*
D03*
X1948500Y605000D02*
D03*
X1961500D02*
D03*
X1948500Y805000D02*
D03*
X1961500D02*
D03*
D26*
X1705000Y61500D02*
D03*
Y48500D02*
D03*
X1255000Y61500D02*
D03*
Y48500D02*
D03*
X805000Y61500D02*
D03*
Y48500D02*
D03*
X355000Y61500D02*
D03*
Y48500D02*
D03*
D27*
X420000Y692000D02*
D03*
X433000D02*
D03*
X426500Y710000D02*
D03*
X433000D02*
D03*
X420000D02*
D03*
D28*
X445000Y704500D02*
D03*
Y695500D02*
D03*
X470000Y645500D02*
D03*
X470000Y634500D02*
D03*
X610000Y625500D02*
D03*
X590000D02*
D03*
X570000D02*
D03*
X550000D02*
D03*
X515000Y905500D02*
D03*
X470000Y625500D02*
D03*
X545000Y905500D02*
D03*
X640000Y949500D02*
D03*
X575000Y905500D02*
D03*
X560000D02*
D03*
X480000Y785500D02*
D03*
Y769500D02*
D03*
X530000Y905500D02*
D03*
X600000Y780500D02*
D03*
Y759500D02*
D03*
X620000Y759500D02*
D03*
X640000Y960500D02*
D03*
X530000Y625500D02*
D03*
X510000D02*
D03*
X490000D02*
D03*
X530000Y645500D02*
D03*
Y634500D02*
D03*
X610000D02*
D03*
X590000D02*
D03*
X570000D02*
D03*
X550000D02*
D03*
X510000D02*
D03*
X490000D02*
D03*
X610000Y645500D02*
D03*
Y654500D02*
D03*
X590000Y645500D02*
D03*
Y654500D02*
D03*
X570000Y645500D02*
D03*
Y654500D02*
D03*
X550000Y645500D02*
D03*
Y654500D02*
D03*
X530000D02*
D03*
X510000D02*
D03*
Y645500D02*
D03*
X490000Y654500D02*
D03*
Y645500D02*
D03*
X640000Y969500D02*
D03*
X620000Y750500D02*
D03*
X600000Y739500D02*
D03*
Y730500D02*
D03*
Y750500D02*
D03*
Y789500D02*
D03*
X530000Y914500D02*
D03*
X480000Y760500D02*
D03*
Y794500D02*
D03*
X560000Y914500D02*
D03*
X575000D02*
D03*
X640000Y940500D02*
D03*
X545000Y914500D02*
D03*
X515000D02*
D03*
X470000Y654500D02*
D03*
D29*
X530500Y720000D02*
D03*
X539500D02*
D03*
X559500D02*
D03*
X550500D02*
D03*
X609500Y820000D02*
D03*
X600500D02*
D03*
X540500Y840000D02*
D03*
X549500D02*
D03*
D30*
X1960000Y260000D02*
D03*
Y460000D02*
D03*
Y660000D02*
D03*
Y860000D02*
D03*
Y230000D02*
D03*
Y430000D02*
D03*
Y630000D02*
D03*
Y830000D02*
D03*
D31*
X495500Y742500D02*
D03*
Y747500D02*
D03*
Y752500D02*
D03*
Y757500D02*
D03*
Y762500D02*
D03*
Y767500D02*
D03*
Y772500D02*
D03*
Y777500D02*
D03*
Y782500D02*
D03*
Y787500D02*
D03*
Y792500D02*
D03*
Y797500D02*
D03*
Y802500D02*
D03*
Y807500D02*
D03*
Y812500D02*
D03*
Y817500D02*
D03*
X584500Y742500D02*
D03*
Y747500D02*
D03*
Y752500D02*
D03*
Y757500D02*
D03*
Y762500D02*
D03*
Y767500D02*
D03*
Y772500D02*
D03*
Y777500D02*
D03*
Y782500D02*
D03*
Y787500D02*
D03*
Y792500D02*
D03*
Y797500D02*
D03*
Y802500D02*
D03*
Y807500D02*
D03*
Y812500D02*
D03*
Y817500D02*
D03*
D32*
X502500Y824500D02*
D03*
X507500D02*
D03*
X512500D02*
D03*
X517500D02*
D03*
X502500Y735500D02*
D03*
X507500D02*
D03*
X512500D02*
D03*
X517500D02*
D03*
X522500D02*
D03*
X527500D02*
D03*
X532500D02*
D03*
X537500D02*
D03*
X542500D02*
D03*
X547500D02*
D03*
X552500D02*
D03*
X557500D02*
D03*
X562500D02*
D03*
X567500D02*
D03*
X572500D02*
D03*
X577500D02*
D03*
Y824500D02*
D03*
X572500D02*
D03*
X567500D02*
D03*
X562500D02*
D03*
X557500D02*
D03*
X552500D02*
D03*
X547500D02*
D03*
X542500D02*
D03*
X537500D02*
D03*
X532500D02*
D03*
X527500D02*
D03*
X522500D02*
D03*
D33*
X613650Y833350D02*
D03*
Y846650D02*
D03*
X596350D02*
D03*
Y833350D02*
D03*
D34*
X307300Y950000D02*
D03*
X332700D02*
D03*
X1657300Y950000D02*
D03*
X1682700D02*
D03*
X757300D02*
D03*
X782700D02*
D03*
X1232700D02*
D03*
X1207300D02*
D03*
D35*
X1951250Y754000D02*
D03*
X1968750D02*
D03*
Y786000D02*
D03*
X1951250D02*
D03*
Y554000D02*
D03*
X1968750D02*
D03*
Y586000D02*
D03*
X1951250D02*
D03*
Y354000D02*
D03*
X1968750D02*
D03*
Y386000D02*
D03*
X1951250D02*
D03*
Y154000D02*
D03*
X1968750D02*
D03*
Y186000D02*
D03*
X1951250D02*
D03*
D36*
X1654000Y58750D02*
D03*
Y41250D02*
D03*
X1686000D02*
D03*
Y58750D02*
D03*
X1204000D02*
D03*
Y41250D02*
D03*
X1236000D02*
D03*
Y58750D02*
D03*
X754000D02*
D03*
Y41250D02*
D03*
X786000D02*
D03*
Y58750D02*
D03*
X304000D02*
D03*
Y41250D02*
D03*
X336000D02*
D03*
Y58750D02*
D03*
D37*
X679500Y966000D02*
D03*
X670000Y944000D02*
D03*
X660500Y966000D02*
D03*
D38*
X432700Y962700D02*
D03*
X445400D02*
D03*
Y950000D02*
D03*
X432700D02*
D03*
X420000Y962700D02*
D03*
Y950000D02*
D03*
D39*
X513000Y930000D02*
D03*
X577000D02*
D03*
X521000D02*
D03*
X568500D02*
D03*
D40*
X547500D02*
D03*
X542500D02*
D03*
X537500D02*
D03*
X532500D02*
D03*
X527500D02*
D03*
X552500D02*
D03*
X557500D02*
D03*
X562500D02*
D03*
D41*
X458100Y956350D02*
D03*
X407300Y946190D02*
D03*
Y966510D02*
D03*
D42*
X501800Y975000D02*
D03*
X588200D02*
D03*
D43*
X501800Y935000D02*
D03*
X588200D02*
D03*
D44*
X1950000Y950000D02*
D03*
Y50000D02*
D03*
X50000D02*
D03*
Y950000D02*
D03*
M02*
