G04*
G04 #@! TF.GenerationSoftware,Altium Limited,Altium Designer,25.8.1 (18)*
G04*
G04 Layer_Physical_Order=4*
G04 Layer_Color=16711680*
%FSLAX44Y44*%
%MOMM*%
G71*
G04*
G04 #@! TF.SameCoordinates,81A76FAA-9F08-4CFF-9DB7-55C6E21C8CF3*
G04*
G04*
G04 #@! TF.FilePolarity,Positive*
G04*
G01*
G75*
%ADD46C,0.1500*%
%ADD48C,1.8796*%
%ADD49O,1.0000X2.2000*%
%ADD50O,1.0000X1.8000*%
%ADD51C,0.9906*%
%ADD52C,6.2000*%
%ADD53C,0.4500*%
D46*
X460000Y226000D02*
Y830000D01*
X444800Y842500D02*
X589500D01*
X307300Y980000D02*
X444800Y842500D01*
X589500D02*
X620000Y812000D01*
X770000Y640000D02*
X1960000D01*
X560000Y590000D02*
X720000D01*
X770000Y640000D01*
X525000Y715000D02*
Y720000D01*
X510000Y650000D02*
Y700000D01*
X525000Y715000D01*
X517245Y717245D02*
Y719745D01*
X492500Y692500D02*
X517245Y717245D01*
X492500Y652500D02*
Y692500D01*
X517245Y719745D02*
X517500Y720000D01*
X870000Y240000D02*
X1960000D01*
X480000Y630000D02*
X870000Y240000D01*
X690000Y440000D02*
X1960000D01*
X500000Y630000D02*
X690000Y440000D01*
X520000Y630000D02*
X560000Y590000D01*
X560000Y610000D02*
X700000D01*
X930000Y840000D01*
X757300Y940300D02*
Y980000D01*
X625000Y808000D02*
X757300Y940300D01*
X630000Y804000D02*
X806000Y980000D01*
X1207300D01*
X775000Y940000D02*
X1617300D01*
X635000Y800000D02*
X775000Y940000D01*
X304000Y70000D02*
X460000Y226000D01*
X480000Y640000D02*
X492500Y652500D01*
X500000Y640000D02*
X510000Y650000D01*
X480000Y630000D02*
Y640000D01*
X500000Y630000D02*
Y640000D01*
X560000Y675000D02*
Y727500D01*
X550000Y665000D02*
X560000Y675000D01*
X580000Y640000D02*
X580000D01*
X560000D02*
X570000Y650000D01*
X600000Y640000D02*
X610000Y650000D01*
X580000Y640000D02*
X590000Y650000D01*
X620000Y640000D02*
X635000Y655000D01*
X520000Y630000D02*
Y640000D01*
X540000D02*
X550000Y650000D01*
X540000Y630000D02*
Y640000D01*
X550000Y650000D02*
Y665000D01*
X520000Y640000D02*
X532500Y652500D01*
Y720000D01*
X570000Y650000D02*
Y665000D01*
X610000Y650000D02*
Y665000D01*
X590000Y650000D02*
Y665000D01*
X635000Y655000D02*
Y800000D01*
X630000Y685000D02*
Y804000D01*
X625000Y700000D02*
Y808000D01*
X620000Y715000D02*
Y812000D01*
X610000Y665000D02*
X630000Y685000D01*
X590000Y665000D02*
X625000Y700000D01*
X570000Y665000D02*
X620000Y715000D01*
X540000Y630000D02*
X560000Y610000D01*
X930000Y840000D02*
X1960000D01*
X1617300Y940000D02*
X1657300Y980000D01*
D48*
X420000Y691500D02*
D03*
Y716900D02*
D03*
Y742300D02*
D03*
Y767700D02*
D03*
Y793100D02*
D03*
Y818500D02*
D03*
X1960000Y214600D02*
D03*
Y414600D02*
D03*
Y614600D02*
D03*
Y814600D02*
D03*
Y265400D02*
D03*
Y465400D02*
D03*
Y665400D02*
D03*
Y865400D02*
D03*
Y440000D02*
D03*
Y240000D02*
D03*
Y840000D02*
D03*
Y640000D02*
D03*
D49*
X588200Y975000D02*
D03*
X501800D02*
D03*
D50*
X588200Y935000D02*
D03*
X501800D02*
D03*
D51*
X646190Y684600D02*
D03*
X666510D02*
D03*
X656350Y735400D02*
D03*
D52*
X50000Y950000D02*
D03*
X1950000D02*
D03*
Y50000D02*
D03*
X50000D02*
D03*
D53*
X549500Y712500D02*
D03*
X1960000Y730000D02*
D03*
Y530000D02*
D03*
Y330000D02*
D03*
X290000Y50000D02*
D03*
X740000D02*
D03*
X1190000D02*
D03*
X1640000D02*
D03*
X1960000Y130000D02*
D03*
X1951250Y787500D02*
D03*
Y587500D02*
D03*
Y387500D02*
D03*
Y187500D02*
D03*
X1697500Y58750D02*
D03*
X1247500D02*
D03*
X797500D02*
D03*
X347500D02*
D03*
X655000Y880000D02*
D03*
Y900000D02*
D03*
X605500Y870000D02*
D03*
X577000Y940000D02*
D03*
X513000D02*
D03*
X545000Y900000D02*
D03*
X530000D02*
D03*
X1232700Y980000D02*
D03*
X1682700D02*
D03*
X782700D02*
D03*
X602500Y782500D02*
D03*
X560000Y900000D02*
D03*
X642500Y710000D02*
D03*
X540000Y620000D02*
D03*
X602500Y757500D02*
D03*
X520000Y620000D02*
D03*
X575000Y900000D02*
D03*
X515000Y900000D02*
D03*
X332700Y980000D02*
D03*
X542500Y727500D02*
D03*
X500000Y620000D02*
D03*
X600000D02*
D03*
X620000D02*
D03*
X497500Y787500D02*
D03*
X497500Y767500D02*
D03*
X580000Y620000D02*
D03*
X560000Y620000D02*
D03*
X494500Y837500D02*
D03*
X552500Y832500D02*
D03*
X577500Y832500D02*
D03*
X597500Y846650D02*
D03*
X480000Y620000D02*
D03*
X1973000Y729500D02*
D03*
Y529500D02*
D03*
Y329500D02*
D03*
Y129500D02*
D03*
X1639500Y37000D02*
D03*
X1189500D02*
D03*
X739500D02*
D03*
X289500D02*
D03*
X615000Y910000D02*
D03*
X568500Y940000D02*
D03*
X521000D02*
D03*
X485000Y837500D02*
D03*
X633000Y880000D02*
D03*
X610000Y795000D02*
D03*
X490000Y755000D02*
D03*
Y800000D02*
D03*
X670000Y722700D02*
D03*
X575000Y720000D02*
D03*
X624500Y826250D02*
D03*
X610000Y725000D02*
D03*
X540000Y660000D02*
D03*
X520000D02*
D03*
X500000D02*
D03*
X480000D02*
D03*
X620000D02*
D03*
X600000D02*
D03*
X580000Y660000D02*
D03*
X560000Y660000D02*
D03*
X584500Y847500D02*
D03*
X559500D02*
D03*
X517500Y720000D02*
D03*
X560000Y727500D02*
D03*
X525000Y720000D02*
D03*
X532500D02*
D03*
X580000Y640000D02*
D03*
X560000D02*
D03*
X540000D02*
D03*
X520000D02*
D03*
X460000Y830000D02*
D03*
X480000Y640000D02*
D03*
X500000D02*
D03*
X620000Y812000D02*
D03*
X630000Y804000D02*
D03*
X625000Y808000D02*
D03*
X635000Y800000D02*
D03*
X620000Y640000D02*
D03*
X600000D02*
D03*
X1207300Y980000D02*
D03*
X757300D02*
D03*
X307300D02*
D03*
X1657300D02*
D03*
X304000Y70000D02*
D03*
M02*
